<svg xmlns="http://www.w3.org/2000/svg" width="323" height="185" fill="none" viewBox="0 0 323 185"><rect width="323" height="185" fill="none"/><path stroke="#fff" stroke-linecap="round" stroke-width="4" d="M253 24C253 141.229 253 174.179 253 176"/><path stroke="#fff" stroke-linecap="round" stroke-width="4" d="M303 176C264.438 117.386 253.599 100.911 253 100"/><path stroke="#fff" stroke-linecap="round" stroke-width="4" d="M303 24C264.438 82.6144 253.599 99.0893 253 100"/><path stroke="#fff" stroke-linecap="round" stroke-width="4" d="M192 24C192 141.229 192 174.179 192 176"/><path stroke="#fff" stroke-linecap="round" stroke-width="4" d="M242 176C203.438 176 192.599 176 192 176"/><path stroke="#fff" stroke-linecap="round" stroke-width="4" d="M152 24C123.464 141.229 115.443 174.179 115 176"/><path stroke="#fff" stroke-linecap="round" stroke-width="4" d="M135 122C158.137 122 164.64 122 165 122"/><path stroke="#fff" stroke-linecap="round" stroke-width="4" d="M152 24C175.137 141.229 181.64 174.179 182 176"/><path stroke="#fff" stroke-linecap="round" stroke-width="5" d="M81.9999 83C126.274 83 137.114 43.6667 136.999 24"/><path stroke="#fff" stroke-linecap="round" stroke-width="5" d="M82 82.9999C37.7257 82.9999 26.8863 43.6666 27.0009 23.9999"/><ellipse cx="71" cy="24.5" fill="#fff" rx="10" ry="15.5"/><path stroke="#fff" stroke-linecap="round" stroke-width="3" d="M88 45L102 61H88"/><ellipse cx="109" cy="24.5" fill="#fff" rx="10" ry="15.5"/><path stroke="#fff" stroke-linecap="round" stroke-width="4" d="M81.3292 176V83"/></svg>